<?xml version="1.0" encoding="utf-8"?>

<!DOCTYPE svg PUBLIC "-//W3C//DTD SVG 1.1//EN" "http://www.w3.org/Graphics/SVG/1.1/DTD/svg11.dtd">
<!-- Uploaded to: SVG Repo, www.svgrepo.com, Generator: SVG Repo Mixer Tools -->
<svg height="800px" width="800px" version="1.1" id="_x32_" xmlns="http://www.w3.org/2000/svg" xmlns:xlink="http://www.w3.org/1999/xlink" 
	 viewBox="0 0 512 512"  xml:space="preserve">
<style type="text/css">
	.st0{fill:#000000;}
</style>
<g>
	<path class="st0" d="M282.475,125.865c-2.794,29.678-5.611,59.35-8.413,89.028c27.967-4.862,55.95-9.799,83.629-11.564
		c2.802-29.686,5.596-59.35,8.414-89.029C338.426,116.057,310.45,120.987,282.475,125.865z"/>
	<path class="st0" d="M467.75,10.549h-0.014C443.896,2.81,419.821,0,396.042,0c-35.67,0.015-70.786,6.217-104.91,12.125
		c-34.139,5.952-67.324,11.632-98.798,11.617c-14.707,0-29.02-1.318-43.038-4.234l1.446-12.64H88.401L30.86,512h62.334
		l20.114-176.543c17.092,3.65,34.23,5.203,51.247,5.203c35.661-0.03,70.778-6.233,104.917-12.14
		c34.109-5.945,67.28-11.625,98.752-11.61h0.061c21.007,0,41.243,2.476,60.91,8.853l21.886,7.081l2.264-23.795
		c8.815-93.209,17.615-186.388,26.438-279.582l0.492-5.286l0.863-9.262L467.75,10.549z M437.943,210.463
		c-26.271-7.482-53.11-8.86-80.252-7.134c-2.794,29.535-5.581,59.062-8.383,88.597c-27.581,1.727-55.207,6.49-82.63,11.246
		l-0.984,0.197c2.786-29.512,5.573-58.986,8.368-88.476c-27.975,4.854-55.934,9.641-83.591,11.079
		c-2.787,29.505-5.559,59.002-8.362,88.499c-5.422,0.296-10.844,0.493-16.228,0.493c-20.364,0-40.35-2.279-59.941-8.05
		c1.787-18.819,3.559-37.623,5.339-56.442l3.62-31.754c24.756,6.959,50.035,8.573,75.572,7.254
		c2.817-29.701,5.619-59.358,8.436-89.036c-24.969,1.295-49.68-0.265-73.914-6.824l9.943-87.234
		c18.516,4.688,37.26,6.558,56.071,6.558c5.392,0,10.799-0.205,16.206-0.485c-2.772,29.33-5.543,58.654-8.307,87.984
		c27.626-1.446,55.601-6.218,83.568-11.072c2.772-29.293,5.536-58.578,8.316-87.871c1.038-0.159,2.082-0.348,3.12-0.53
		c27.165-4.71,54.087-9.33,80.51-11.034c-2.779,29.285-5.544,58.578-8.316,87.87c27.15-1.718,53.988-0.34,80.26,7.127
		C443.57,151.113,440.753,180.784,437.943,210.463z"/>
</g>
</svg>