<?xml version="1.0" encoding="iso-8859-1"?>
<!-- Uploaded to: SVG Repo, www.svgrepo.com, Generator: SVG Repo Mixer Tools -->
<svg fill="#f6bd02" height="800px" width="800px" version="1.1" id="Layer_1" xmlns="http://www.w3.org/2000/svg" xmlns:xlink="http://www.w3.org/1999/xlink" 
	 viewBox="0 0 511.307 511.307" xml:space="preserve">
<g>
	<g>
		<g>
			<path d="M250.507,399.227c2.773,0,5.44-1.173,7.36-3.2c5.333-5.547,130.88-138.347,130.88-242.773
				c0-78.933-61.973-143.147-138.24-143.147s-138.24,64.213-138.24,143.147c0,104.96,125.547,237.227,130.88,242.88
				C245.067,398.054,247.734,399.227,250.507,399.227z M250.507,30.587c64.96,0,117.76,55.04,117.76,122.667
				c0,82.453-90.88,190.507-117.76,220.587c-26.88-30.08-117.76-137.6-117.76-220.587C132.747,85.627,185.547,30.587,250.507,30.587
				z"/>
			<path d="M317.067,158.587c0-36.8-29.76-66.56-66.56-66.56c-36.8,0-66.56,29.76-66.56,66.56c0,36.8,29.76,66.56,66.56,66.56
				C287.201,225.147,317.067,195.28,317.067,158.587z M204.427,158.587c0-25.493,20.587-46.08,46.08-46.08s46.08,20.587,46.08,46.08
				c0,25.493-20.587,46.08-46.08,46.08S204.427,184.08,204.427,158.587z"/>
			<path d="M510.347,486.587L438.667,333.2c-1.707-3.627-5.333-5.867-9.28-5.867h-91.52c-5.44,0-10.133,4.053-10.56,9.493
				c-0.32,5.867,4.267,10.773,10.133,10.773h85.76l62.293,133.333h-66.347c-2.773-24.64-20.16-41.813-51.84-51.093
				c-29.973-8.747-71.253-10.773-114.987-12.8c-16-0.747-32.533-1.6-49.28-2.667c-21.013-1.493-48.107-6.827-57.067-24.213
				c-7.68-14.827-0.533-33.707,3.627-42.56h13.44c5.44,0,10.133-4.053,10.56-9.493c0.32-5.867-4.267-10.773-10.133-10.773H70.561
				c-4.16,0-8,2.56-9.493,6.507L0.694,487.227c-2.027,5.227,0.533,11.2,5.76,13.227c1.173,0.427,2.453,0.747,3.733,0.747h490.88
				c5.653,0,10.24-4.587,10.24-10.24C511.307,489.467,510.987,487.974,510.347,486.587z M24.587,480.934L77.067,347.6h50.56
				c-4.907,13.547-9.067,33.707,0.32,51.84c10.773,20.8,35.627,32.64,73.92,35.307c16.853,1.173,33.493,1.92,49.707,2.667
				c42.453,2.027,82.56,3.947,110.187,12.053c22.72,6.613,34.133,16.427,36.8,31.467H24.587z"/>
		</g>
	</g>
</g>
</svg>